<?xml version="1.0" standalone="no"?>
<!DOCTYPE svg PUBLIC "-//W3C//DTD SVG 20010904//EN"
 "http://www.w3.org/TR/2001/REC-SVG-20010904/DTD/svg10.dtd">
<svg version="1.0" xmlns="http://www.w3.org/2000/svg"
 width="1218.000000pt" height="1218.000000pt" viewBox="0 0 1218.000000 1218.000000"
 preserveAspectRatio="xMidYMid meet">

<g transform="translate(0.000000,1218.000000) scale(0.100000,-0.100000)"
fill="#000000" stroke="none">
<path d="M5805 12064 c-27 -2 -115 -8 -195 -14 -298 -22 -684 -85 -982 -160
-893 -226 -1717 -654 -2434 -1264 -166 -141 -499 -474 -640 -640 -656 -772
-1102 -1667 -1310 -2636 -249 -1159 -148 -2372 291 -3475 235 -592 588 -1175
1019 -1681 141 -166 474 -499 640 -640 935 -795 2036 -1273 3246 -1408 342
-38 814 -45 1145 -16 1270 110 2427 595 3401 1424 166 141 499 474 640 640
657 772 1101 1667 1310 2636 177 825 177 1695 0 2520 -209 969 -653 1864
-1310 2636 -141 166 -474 499 -640 640 -717 610 -1541 1038 -2434 1264 -281
70 -653 132 -967 160 -120 11 -686 21 -780 14z m2965 -3034 c558 -50 1056
-250 1499 -600 108 -86 364 -328 359 -340 -2 -4 -122 -128 -267 -276 l-263
-269 -17 25 c-44 67 -174 211 -260 287 -432 383 -1038 569 -1524 468 -325 -67
-578 -241 -697 -480 -63 -127 -83 -216 -84 -380 -1 -160 9 -213 64 -330 84
-182 200 -289 433 -400 141 -68 277 -114 807 -275 449 -136 596 -185 759 -250
493 -196 791 -457 951 -834 145 -340 146 -790 4 -1146 -164 -409 -531 -739
-1024 -923 -241 -89 -521 -144 -838 -163 l-112 -7 2 344 3 344 65 2 c388 14
719 135 924 339 108 107 197 257 238 401 30 102 32 340 5 443 -42 158 -146
321 -265 416 -181 143 -338 206 -1057 424 -596 181 -740 232 -954 339 -203
102 -338 199 -466 332 -551 575 -459 1599 189 2104 381 296 976 454 1526 405z
m-3358 -3015 c637 -1578 1158 -2871 1158 -2872 0 -2 -186 -3 -412 -3 l-413 0
-864 2143 c-476 1178 -867 2157 -869 2175 -3 26 -43 -64 -211 -481 -113 -282
-507 -1261 -876 -2175 l-670 -1662 -414 0 c-327 0 -412 3 -408 13 3 6 519
1286 1147 2842 628 1557 1148 2845 1155 2863 l14 32 252 -2 252 -3 1159 -2870z"/>
</g>
</svg>
